<?xml version="1.0" encoding="UTF-8" standalone="no"?>
<svg
   xmlns:dc="http://purl.org/dc/elements/1.1/"
   xmlns:cc="http://creativecommons.org/ns#"
   xmlns:rdf="http://www.w3.org/1999/02/22-rdf-syntax-ns#"
   xmlns:svg="http://www.w3.org/2000/svg"
   xmlns="http://www.w3.org/2000/svg"
   version="1.1"
   id="svg10"
   xml:space="preserve"
   width="325.33334"
   height="77.333336"
   viewBox="0 0 325.33334 77.333336"><metadata
     id="metadata16"><rdf:RDF><cc:Work
         rdf:about=""><dc:format>image/svg+xml</dc:format><dc:type
           rdf:resource="http://purl.org/dc/dcmitype/StillImage" /><dc:title></dc:title></cc:Work></rdf:RDF></metadata><defs
     id="defs14"><clipPath
       clipPathUnits="userSpaceOnUse"
       id="clipPath26"><path
         d="M 0,58 H 244 V 0 H 0 Z"
         id="path24" /></clipPath></defs><g
     id="g18"
     transform="matrix(1.3333333,0,0,-1.3333333,0,77.333333)"><g
       id="g20"><g
         id="g22"
         clip-path="url(#clipPath26)"><g
           id="g28"
           transform="translate(51.9873,12.126)"><path
             d="m 0,0 h 170.047 c 8.919,0 16.176,7.257 16.176,16.176 0,8.92 -7.257,16.177 -16.176,16.177 H -0.628 C 3.012,27.801 5.195,22.037 5.195,15.77 5.195,9.87 3.262,4.416 0,0"
             style="fill:#ffffff;fill-opacity:1;fill-rule:nonzero;stroke:none"
             id="path30" /></g><g
           id="g32"
           transform="translate(222.0342,45.4785)"><path
             d="m 0,0 h -171.515 c 0.288,-0.326 0.568,-0.66 0.84,-1 H 0 c 8.919,0 16.176,-7.257 16.176,-16.177 0,-8.919 -7.257,-16.176 -16.176,-16.176 h -170.047 c -0.251,-0.339 -0.51,-0.672 -0.776,-1 H 0 c 9.486,0 17.176,7.69 17.176,17.176 C 17.176,-7.691 9.486,0 0,0"
             style="fill:#ed1c24;fill-opacity:1;fill-rule:nonzero;stroke:none"
             id="path34" /></g><g
           id="g36"
           transform="translate(36.4766,30.002)"><path
             d="m 0,0 c -0.482,0.759 -1.167,1.437 -2.059,2.044 -0.813,0.557 -1.94,1.153 -3.38,1.776 -1.446,0.62 -2.69,1.16 -3.729,1.617 -0.768,-0.663 -1.401,-1.582 -1.9,-2.758 -0.5,-1.174 -0.748,-2.281 -0.748,-3.321 0,-1.101 0.258,-2.041 0.777,-2.82 0.522,-0.778 1.216,-1.46 2.092,-2.044 0.952,-0.625 2.051,-1.197 3.287,-1.727 1.237,-0.534 2.478,-1.07 3.724,-1.607 1.018,0.893 1.715,1.849 2.092,2.869 0.372,1.022 0.56,2.085 0.56,3.209 C 0.716,-1.681 0.478,-0.761 0,0"
             style="fill:#4f4c4d;fill-opacity:1;fill-rule:nonzero;stroke:none"
             id="path38" /></g><g
           id="g40"
           transform="translate(18.626,11.1045)"><path
             d="m 0,0 c 0.679,0.742 1.657,1.114 2.949,1.114 0.912,0 1.7,-0.243 2.366,-0.718 0.667,-0.483 1.229,-1.105 1.685,-1.875 0.435,-0.723 0.805,-1.5 1.107,-2.321 0.3,-0.821 0.619,-1.7 0.949,-2.637 0.103,-0.019 0.251,-0.041 0.437,-0.057 0.185,-0.022 0.336,-0.036 0.435,-0.036 1.955,0 3.572,0.372 4.848,1.124 1.281,0.744 1.919,1.955 1.919,3.617 0,0.999 -0.206,1.839 -0.624,2.523 -0.416,0.685 -1.03,1.302 -1.839,1.84 C 13.441,3.136 12.395,3.693 11.084,4.245 9.771,4.796 8.475,5.329 7.187,5.85 4.049,7.118 1.746,8.559 0.282,10.168 c -1.466,1.608 -2.199,3.609 -2.199,5.996 0,2.039 0.594,3.807 1.777,5.302 1.187,1.497 3.284,2.801 6.297,3.898 -2.327,0.954 -4.021,2.166 -5.081,3.634 -1.061,1.464 -1.592,3.121 -1.592,4.969 0,1.543 0.45,2.933 1.316,4.182 -7.689,-4.032 -12.949,-12.089 -12.949,-21.358 0,-8.555 4.483,-16.076 11.22,-20.354 -0.05,0.253 -0.084,0.503 -0.084,0.744 0,1.142 0.338,2.084 1.013,2.819"
             style="fill:#4f4c4d;fill-opacity:1;fill-rule:nonzero;stroke:none"
             id="path42" /></g><g
           id="g44"
           transform="translate(48.0474,44.4785)"><path
             d="M 0,0 C -0.326,0.343 -0.661,0.677 -1.006,1 -1.98,1.913 -3.033,2.741 -4.147,3.483 -4.21,2.54 -4.51,1.725 -5.07,1.049 -5.707,0.29 -6.709,-0.088 -8.082,-0.088 c -0.956,0 -1.749,0.235 -2.384,0.713 -0.634,0.48 -1.19,1.101 -1.667,1.873 -0.396,0.623 -0.775,1.436 -1.141,2.448 -0.334,0.926 -0.616,1.702 -0.854,2.341 -0.69,0.096 -1.389,0.165 -2.096,0.201 -1.434,-0.128 -2.661,-0.49 -3.658,-1.112 -1.254,-0.775 -1.886,-1.966 -1.886,-3.565 0,-1.04 0.214,-1.894 0.641,-2.559 0.424,-0.666 1.077,-1.279 1.947,-1.836 0.873,-0.564 1.944,-1.104 3.212,-1.623 1.265,-0.521 2.587,-1.064 3.958,-1.619 3.117,-1.25 5.413,-2.662 6.892,-4.238 1.475,-1.583 2.209,-3.614 2.209,-6.081 0,-2.209 -0.73,-4.089 -2.196,-5.645 -1.461,-1.562 -3.425,-2.743 -5.873,-3.557 2.118,-0.872 3.718,-2.039 4.796,-3.492 1.082,-1.453 1.626,-3.053 1.626,-4.801 0,-2.105 -0.736,-3.949 -2.207,-5.527 2.461,1.227 4.685,2.86 6.582,4.814 0.315,0.325 0.62,0.659 0.917,1 3.67,4.231 5.899,9.744 5.899,15.77 C 6.635,-10.162 4.107,-4.324 0,0"
             style="fill:#4f4c4d;fill-opacity:1;fill-rule:nonzero;stroke:none"
             id="path46" /></g><g
           id="g48"
           transform="translate(34.7734,49.4248)"><path
             d="m 0,0 c 0.366,-1.013 0.745,-1.825 1.141,-2.448 0.477,-0.773 1.033,-1.393 1.667,-1.873 0.635,-0.478 1.428,-0.713 2.384,-0.713 1.372,0 2.375,0.378 3.012,1.137 0.56,0.675 0.86,1.491 0.923,2.434 C 6.187,0.497 2.798,1.831 -0.854,2.34 -0.616,1.702 -0.334,0.926 0,0"
             style="fill:#ffffff;fill-opacity:1;fill-rule:nonzero;stroke:none"
             id="path50" /></g><g
           id="g52"
           transform="translate(34.541,21.1621)"><path
             d="M 0,0 C -1.246,0.537 -2.487,1.073 -3.725,1.606 -4.961,2.137 -6.06,2.709 -7.012,3.334 -7.888,3.918 -8.581,4.6 -9.104,5.378 c -0.518,0.779 -0.777,1.719 -0.777,2.82 0,1.04 0.248,2.147 0.748,3.321 0.499,1.176 1.133,2.095 1.901,2.758 1.039,-0.457 2.283,-0.997 3.728,-1.617 1.441,-0.623 2.567,-1.22 3.381,-1.776 C 0.769,10.276 1.453,9.599 1.936,8.84 2.413,8.079 2.651,7.159 2.651,6.078 2.651,4.954 2.464,3.891 2.092,2.869 1.715,1.849 1.018,0.893 0,0 m 8.95,-9.323 c 0,1.748 -0.544,3.347 -1.626,4.801 -1.078,1.453 -2.678,2.62 -4.796,3.492 2.449,0.813 4.412,1.995 5.873,3.556 1.466,1.556 2.197,3.437 2.197,5.646 0,2.467 -0.735,4.497 -2.209,6.08 -1.48,1.576 -3.776,2.988 -6.893,4.238 -1.371,0.555 -2.692,1.099 -3.958,1.619 -1.267,0.519 -2.339,1.059 -3.212,1.623 -0.87,0.557 -1.522,1.17 -1.947,1.836 -0.427,0.665 -0.641,1.52 -0.641,2.559 0,1.6 0.632,2.79 1.886,3.565 0.997,0.622 2.224,0.985 3.658,1.113 -0.412,0.021 -0.827,0.033 -1.245,0.033 -4.022,0 -7.815,-0.996 -11.152,-2.746 -0.866,-1.249 -1.316,-2.639 -1.316,-4.183 0,-1.847 0.531,-3.505 1.592,-4.969 1.06,-1.467 2.754,-2.679 5.081,-3.633 -3.013,-1.098 -5.11,-2.402 -6.297,-3.899 -1.183,-1.495 -1.777,-3.262 -1.777,-5.302 0,-2.386 0.733,-4.387 2.199,-5.996 1.464,-1.609 3.767,-3.049 6.904,-4.318 1.289,-0.521 2.585,-1.054 3.898,-1.604 1.31,-0.552 2.357,-1.11 3.148,-1.671 0.809,-0.538 1.423,-1.156 1.839,-1.84 0.418,-0.685 0.624,-1.525 0.624,-2.524 0,-1.662 -0.638,-2.873 -1.919,-3.617 -1.276,-0.752 -2.893,-1.124 -4.848,-1.124 -0.099,0 -0.25,0.015 -0.435,0.036 -0.186,0.017 -0.334,0.038 -0.437,0.058 -0.33,0.936 -0.649,1.815 -0.949,2.637 -0.302,0.821 -0.672,1.597 -1.107,2.32 -0.456,0.77 -1.018,1.392 -1.685,1.875 -0.666,0.475 -1.454,0.719 -2.366,0.719 -1.292,0 -2.27,-0.372 -2.949,-1.115 -0.675,-0.735 -1.013,-1.676 -1.013,-2.819 0,-0.24 0.034,-0.49 0.084,-0.744 3.73,-2.368 8.146,-3.746 12.881,-3.746 3.845,0 7.48,0.907 10.707,2.516 1.47,1.579 2.206,3.422 2.206,5.528"
             style="fill:#ffffff;fill-opacity:1;fill-rule:nonzero;stroke:none"
             id="path54" /></g></g></g><text
       transform="matrix(1,0,0,-1,59.7939,30.4775)"
       style="font-variant:normal;font-weight:bold;font-stretch:normal;font-size:14px;font-family:Ubuntu;-inkscape-font-specification:Ubuntu-Bold;writing-mode:lr-tb;fill:#ed1c24;fill-opacity:1;fill-rule:nonzero;stroke:none"
       id="text60"><tspan
         x="0 13.272 17.695999 26.18 36.764 45.248001"
         y="0"
         id="tspan56">WIENER</tspan><tspan
         x="0 10.094 19.431999 28.84 37.324001 41.748001 50.344002 58.492001 67.830002 76.314003 85.386002 95.662003 104.258 112.406 120.33 131.39 140.616 150.51401"
         y="14"
         id="tspan58">ARBEITSRECHTSFORUM</tspan></text></g></svg>
